<svg width="14" height="17" viewBox="0 0 14 17" fill="none" xmlns="http://www.w3.org/2000/svg">
<path d="M9.62586 15.8076H9.1192V16.2129H9.62586V15.8076Z" fill="#0E1AFB"/>
<path d="M9.11994 15.8076H8.61328V16.2129H9.11994V15.8076Z" fill="#0E1AFB"/>
<path d="M8.61212 15.8076H8.10547V16.2129H8.61212V15.8076Z" fill="#0E1AFB"/>
<path d="M4.55933 15.8076H4.05267V16.2129H4.55933V15.8076Z" fill="#0E1AFB"/>
<path d="M4.05353 15.8076H3.54688V16.2129H4.05353V15.8076Z" fill="#0E1AFB"/>
<path d="M9.62586 15.4023H9.1192V15.8077H9.62586V15.4023Z" fill="#0E1AFB"/>
<path d="M9.11994 15.4019H8.61328V15.8072H9.11994V15.4019Z" fill="#0E1AFB"/>
<path d="M8.61212 15.4019H8.10547V15.8072H8.61212V15.4019Z" fill="#0E1AFB"/>
<path d="M5.06525 15.4019H4.55859V15.8072H5.06525V15.4019Z" fill="#0E1AFB"/>
<path d="M4.55933 15.4023H4.05267V15.8077H4.55933V15.4023Z" fill="#0E1AFB"/>
<path d="M4.05353 15.4019H3.54688V15.8072H4.05353V15.4019Z" fill="#0E1AFB"/>
<path d="M9.62586 14.9966H9.1192V15.4019H9.62586V14.9966Z" fill="#0E1AFB"/>
<path d="M9.11994 14.9966H8.61328V15.4019H9.11994V14.9966Z" fill="#0E1AFB"/>
<path d="M8.61212 14.9966H8.10547V15.4019H8.61212V14.9966Z" fill="#0E1AFB"/>
<path d="M5.06525 14.9966H4.55859V15.4019H5.06525V14.9966Z" fill="#0E1AFB"/>
<path d="M4.55933 14.9966H4.05267V15.4019H4.55933V14.9966Z" fill="#0E1AFB"/>
<path d="M4.05353 14.9966H3.54688V15.4019H4.05353V14.9966Z" fill="#0E1AFB"/>
<path d="M9.62586 14.5913H9.1192V14.9966H9.62586V14.5913Z" fill="#0E1AFB"/>
<path d="M9.11994 14.5913H8.61328V14.9966H9.11994V14.5913Z" fill="#0E1AFB"/>
<path d="M8.61212 14.5913H8.10547V14.9966H8.61212V14.5913Z" fill="#0E1AFB"/>
<path d="M8.10627 14.5913H7.59961V14.9966H8.10627V14.5913Z" fill="#0E1AFB"/>
<path d="M5.06525 14.5913H4.55859V14.9966H5.06525V14.5913Z" fill="#0E1AFB"/>
<path d="M4.55933 14.5913H4.05267V14.9966H4.55933V14.5913Z" fill="#0E1AFB"/>
<path d="M4.05353 14.5913H3.54688V14.9966H4.05353V14.5913Z" fill="#0E1AFB"/>
<path d="M9.62586 14.186H9.1192V14.5914H9.62586V14.186Z" fill="#0E1AFB"/>
<path d="M9.11994 14.186H8.61328V14.5914H9.11994V14.186Z" fill="#0E1AFB"/>
<path d="M8.61212 14.186H8.10547V14.5914H8.61212V14.186Z" fill="#0E1AFB"/>
<path d="M8.10627 14.186H7.59961V14.5914H8.10627V14.186Z" fill="#0E1AFB"/>
<path d="M5.06525 14.186H4.55859V14.5914H5.06525V14.186Z" fill="#0E1AFB"/>
<path d="M4.55933 14.186H4.05267V14.5914H4.55933V14.186Z" fill="#0E1AFB"/>
<path d="M4.05353 14.186H3.54688V14.5914H4.05353V14.186Z" fill="#0E1AFB"/>
<path d="M9.62586 13.7808H9.1192V14.1861H9.62586V13.7808Z" fill="#0E1AFB"/>
<path d="M9.11994 13.7808H8.61328V14.1861H9.11994V13.7808Z" fill="#0E1AFB"/>
<path d="M8.61212 13.7808H8.10547V14.1861H8.61212V13.7808Z" fill="#0E1AFB"/>
<path d="M8.10627 13.7808H7.59961V14.1861H8.10627V13.7808Z" fill="#0E1AFB"/>
<path d="M5.57306 13.7808H5.06641V14.1861H5.57306V13.7808Z" fill="#0E1AFB"/>
<path d="M5.06525 13.7808H4.55859V14.1861H5.06525V13.7808Z" fill="#0E1AFB"/>
<path d="M4.55933 13.7808H4.05267V14.1861H4.55933V13.7808Z" fill="#0E1AFB"/>
<path d="M4.05353 13.7808H3.54688V14.1861H4.05353V13.7808Z" fill="#0E1AFB"/>
<path d="M9.62586 13.3755H9.1192V13.7808H9.62586V13.3755Z" fill="#0E1AFB"/>
<path d="M9.11994 13.3755H8.61328V13.7808H9.11994V13.3755Z" fill="#0E1AFB"/>
<path d="M8.61212 13.3755H8.10547V13.7808H8.61212V13.3755Z" fill="#0E1AFB"/>
<path d="M8.10627 13.3755H7.59961V13.7808H8.10627V13.3755Z" fill="#0E1AFB"/>
<path d="M5.57306 13.3755H5.06641V13.7808H5.57306V13.3755Z" fill="#0E1AFB"/>
<path d="M5.06525 13.3755H4.55859V13.7808H5.06525V13.3755Z" fill="#0E1AFB"/>
<path d="M4.55933 13.3755H4.05267V13.7808H4.55933V13.3755Z" fill="#0E1AFB"/>
<path d="M4.05353 13.3755H3.54688V13.7808H4.05353V13.3755Z" fill="#0E1AFB"/>
<path d="M9.11994 12.9702H8.61328V13.3755H9.11994V12.9702Z" fill="#0E1AFB"/>
<path d="M8.61212 12.9702H8.10547V13.3755H8.61212V12.9702Z" fill="#0E1AFB"/>
<path d="M8.10627 12.9702H7.59961V13.3755H8.10627V12.9702Z" fill="#0E1AFB"/>
<path d="M5.57306 12.9702H5.06641V13.3755H5.57306V12.9702Z" fill="#0E1AFB"/>
<path d="M5.06525 12.9702H4.55859V13.3755H5.06525V12.9702Z" fill="#0E1AFB"/>
<path d="M4.55933 12.9702H4.05267V13.3755H4.55933V12.9702Z" fill="#0E1AFB"/>
<path d="M4.05353 12.9702H3.54688V13.3755H4.05353V12.9702Z" fill="#0E1AFB"/>
<path d="M9.11994 12.5649H8.61328V12.9703H9.11994V12.5649Z" fill="#0E1AFB"/>
<path d="M8.61212 12.5649H8.10547V12.9703H8.61212V12.5649Z" fill="#0E1AFB"/>
<path d="M8.10627 12.5649H7.59961V12.9703H8.10627V12.5649Z" fill="#0E1AFB"/>
<path d="M5.57306 12.5649H5.06641V12.9703H5.57306V12.5649Z" fill="#0E1AFB"/>
<path d="M5.06525 12.5649H4.55859V12.9703H5.06525V12.5649Z" fill="#0E1AFB"/>
<path d="M4.55933 12.5649H4.05267V12.9703H4.55933V12.5649Z" fill="#0E1AFB"/>
<path d="M4.05353 12.5649H3.54688V12.9703H4.05353V12.5649Z" fill="#0E1AFB"/>
<path d="M9.11994 12.1597H8.61328V12.565H9.11994V12.1597Z" fill="#0E1AFB"/>
<path d="M8.61212 12.1597H8.10547V12.565H8.61212V12.1597Z" fill="#0E1AFB"/>
<path d="M8.10627 12.1597H7.59961V12.565H8.10627V12.1597Z" fill="#0E1AFB"/>
<path d="M5.57306 12.1597H5.06641V12.565H5.57306V12.1597Z" fill="#0E1AFB"/>
<path d="M5.06525 12.1597H4.55859V12.565H5.06525V12.1597Z" fill="#0E1AFB"/>
<path d="M4.55933 12.1597H4.05267V12.565H4.55933V12.1597Z" fill="#0E1AFB"/>
<path d="M9.11994 11.7544H8.61328V12.1597H9.11994V11.7544Z" fill="#0E1AFB"/>
<path d="M8.61212 11.7544H8.10547V12.1597H8.61212V11.7544Z" fill="#0E1AFB"/>
<path d="M8.10627 11.7544H7.59961V12.1597H8.10627V11.7544Z" fill="#0E1AFB"/>
<path d="M7.59845 11.7544H7.0918V12.1597H7.59845V11.7544Z" fill="#0E1AFB"/>
<path d="M5.57306 11.7544H5.06641V12.1597H5.57306V11.7544Z" fill="#0E1AFB"/>
<path d="M5.06525 11.7544H4.55859V12.1597H5.06525V11.7544Z" fill="#0E1AFB"/>
<path d="M4.55933 11.7544H4.05267V12.1597H4.55933V11.7544Z" fill="#0E1AFB"/>
<path d="M9.11994 11.3491H8.61328V11.7544H9.11994V11.3491Z" fill="#0E1AFB"/>
<path d="M8.61212 11.3491H8.10547V11.7544H8.61212V11.3491Z" fill="#0E1AFB"/>
<path d="M8.10627 11.3491H7.59961V11.7544H8.10627V11.3491Z" fill="#0E1AFB"/>
<path d="M7.59845 11.3491H7.0918V11.7544H7.59845V11.3491Z" fill="#0E1AFB"/>
<path d="M5.57306 11.3491H5.06641V11.7544H5.57306V11.3491Z" fill="#0E1AFB"/>
<path d="M5.06525 11.3491H4.55859V11.7544H5.06525V11.3491Z" fill="#0E1AFB"/>
<path d="M4.55933 11.3491H4.05267V11.7544H4.55933V11.3491Z" fill="#0E1AFB"/>
<path d="M9.11994 10.9438H8.61328V11.3492H9.11994V10.9438Z" fill="#0E1AFB"/>
<path d="M8.61212 10.9438H8.10547V11.3492H8.61212V10.9438Z" fill="#0E1AFB"/>
<path d="M8.10627 10.9438H7.59961V11.3492H8.10627V10.9438Z" fill="#0E1AFB"/>
<path d="M7.59845 10.9438H7.0918V11.3492H7.59845V10.9438Z" fill="#0E1AFB"/>
<path d="M6.07892 10.9438H5.57227V11.3492H6.07892V10.9438Z" fill="#0E1AFB"/>
<path d="M5.57306 10.9438H5.06641V11.3492H5.57306V10.9438Z" fill="#0E1AFB"/>
<path d="M5.06525 10.9438H4.55859V11.3492H5.06525V10.9438Z" fill="#0E1AFB"/>
<path d="M4.55933 10.9434H4.05267V11.3487H4.55933V10.9434Z" fill="#0E1AFB"/>
<path d="M9.11994 10.5386H8.61328V10.9439H9.11994V10.5386Z" fill="#0E1AFB"/>
<path d="M8.61212 10.5386H8.10547V10.9439H8.61212V10.5386Z" fill="#0E1AFB"/>
<path d="M8.10627 10.5386H7.59961V10.9439H8.10627V10.5386Z" fill="#0E1AFB"/>
<path d="M7.59845 10.5386H7.0918V10.9439H7.59845V10.5386Z" fill="#0E1AFB"/>
<path d="M6.07892 10.5386H5.57227V10.9439H6.07892V10.5386Z" fill="#0E1AFB"/>
<path d="M5.57306 10.5386H5.06641V10.9439H5.57306V10.5386Z" fill="#0E1AFB"/>
<path d="M5.06525 10.5386H4.55859V10.9439H5.06525V10.5386Z" fill="#0E1AFB"/>
<path d="M4.55933 10.5381H4.05267V10.9434H4.55933V10.5381Z" fill="#0E1AFB"/>
<path d="M8.61212 10.1333H8.10547V10.5386H8.61212V10.1333Z" fill="#0E1AFB"/>
<path d="M8.10627 10.1333H7.59961V10.5386H8.10627V10.1333Z" fill="#0E1AFB"/>
<path d="M7.59845 10.1333H7.0918V10.5386H7.59845V10.1333Z" fill="#0E1AFB"/>
<path d="M7.09259 10.1328H6.58594V10.5381H7.09259V10.1328Z" fill="#0E1AFB"/>
<path d="M6.07892 10.1333H5.57227V10.5386H6.07892V10.1333Z" fill="#0E1AFB"/>
<path d="M5.57306 10.1333H5.06641V10.5386H5.57306V10.1333Z" fill="#0E1AFB"/>
<path d="M5.06525 10.1333H4.55859V10.5386H5.06525V10.1333Z" fill="#0E1AFB"/>
<path d="M4.55933 10.1328H4.05267V10.5381H4.55933V10.1328Z" fill="#0E1AFB"/>
<path d="M8.61212 9.72803H8.10547V10.1333H8.61212V9.72803Z" fill="#0E1AFB"/>
<path d="M8.10627 9.72803H7.59961V10.1333H8.10627V9.72803Z" fill="#0E1AFB"/>
<path d="M7.59845 9.72803H7.0918V10.1333H7.59845V9.72803Z" fill="#0E1AFB"/>
<path d="M7.09259 9.72754H6.58594V10.1329H7.09259V9.72754Z" fill="#0E1AFB"/>
<path d="M6.58673 9.72803H6.08008V10.1333H6.58673V9.72803Z" fill="#0E1AFB"/>
<path d="M6.07892 9.72803H5.57227V10.1333H6.07892V9.72803Z" fill="#0E1AFB"/>
<path d="M5.57306 9.72803H5.06641V10.1333H5.57306V9.72803Z" fill="#0E1AFB"/>
<path d="M5.06525 9.72803H4.55859V10.1333H5.06525V9.72803Z" fill="#0E1AFB"/>
<path d="M4.55933 9.72754H4.05267V10.1329H4.55933V9.72754Z" fill="#0E1AFB"/>
<path d="M8.61212 9.32227H8.10547V9.72759H8.61212V9.32227Z" fill="#0E1AFB"/>
<path d="M8.10627 9.32227H7.59961V9.72759H8.10627V9.32227Z" fill="#0E1AFB"/>
<path d="M7.59845 9.32227H7.0918V9.72759H7.59845V9.32227Z" fill="#0E1AFB"/>
<path d="M7.09259 9.32227H6.58594V9.72759H7.09259V9.32227Z" fill="#0E1AFB"/>
<path d="M6.58673 9.32227H6.08008V9.72759H6.58673V9.32227Z" fill="#0E1AFB"/>
<path d="M6.07892 9.32227H5.57227V9.72759H6.07892V9.32227Z" fill="#0E1AFB"/>
<path d="M5.57306 9.32227H5.06641V9.72759H5.57306V9.32227Z" fill="#0E1AFB"/>
<path d="M5.06525 9.32227H4.55859V9.72759H5.06525V9.32227Z" fill="#0E1AFB"/>
<path d="M8.61212 8.91748H8.10547V9.3228H8.61212V8.91748Z" fill="#0E1AFB"/>
<path d="M8.10627 8.91748H7.59961V9.3228H8.10627V8.91748Z" fill="#0E1AFB"/>
<path d="M7.59845 8.91748H7.0918V9.3228H7.59845V8.91748Z" fill="#0E1AFB"/>
<path d="M7.09259 8.91699H6.58594V9.32231H7.09259V8.91699Z" fill="#0E1AFB"/>
<path d="M6.58673 8.91748H6.08008V9.3228H6.58673V8.91748Z" fill="#0E1AFB"/>
<path d="M6.07892 8.91748H5.57227V9.3228H6.07892V8.91748Z" fill="#0E1AFB"/>
<path d="M5.57306 8.91748H5.06641V9.3228H5.57306V8.91748Z" fill="#0E1AFB"/>
<path d="M5.06525 8.91748H4.55859V9.3228H5.06525V8.91748Z" fill="#0E1AFB"/>
<path d="M8.61212 8.51172H8.10547V8.91704H8.61212V8.51172Z" fill="#0E1AFB"/>
<path d="M8.10627 8.51172H7.59961V8.91704H8.10627V8.51172Z" fill="#0E1AFB"/>
<path d="M7.59845 8.51172H7.0918V8.91704H7.59845V8.51172Z" fill="#0E1AFB"/>
<path d="M7.09259 8.51172H6.58594V8.91704H7.09259V8.51172Z" fill="#0E1AFB"/>
<path d="M6.58673 8.51172H6.08008V8.91704H6.58673V8.51172Z" fill="#0E1AFB"/>
<path d="M6.07892 8.51172H5.57227V8.91704H6.07892V8.51172Z" fill="#0E1AFB"/>
<path d="M5.57306 8.51172H5.06641V8.91704H5.57306V8.51172Z" fill="#0E1AFB"/>
<path d="M5.06525 8.51172H4.55859V8.91704H5.06525V8.51172Z" fill="#0E1AFB"/>
<path d="M8.61212 8.10645H8.10547V8.51177H8.61212V8.10645Z" fill="#0E1AFB"/>
<path d="M8.10627 8.10645H7.59961V8.51177H8.10627V8.10645Z" fill="#0E1AFB"/>
<path d="M7.59845 8.10645H7.0918V8.51177H7.59845V8.10645Z" fill="#0E1AFB"/>
<path d="M7.09259 8.10645H6.58594V8.51177H7.09259V8.10645Z" fill="#0E1AFB"/>
<path d="M6.58673 8.10645H6.08008V8.51177H6.58673V8.10645Z" fill="#0E1AFB"/>
<path d="M6.07892 8.10645H5.57227V8.51177H6.07892V8.10645Z" fill="#0E1AFB"/>
<path d="M5.57306 8.10645H5.06641V8.51177H5.57306V8.10645Z" fill="#0E1AFB"/>
<path d="M5.06525 8.10645H4.55859V8.51177H5.06525V8.10645Z" fill="#0E1AFB"/>
<path d="M8.61212 7.70068H8.10547V8.106H8.61212V7.70068Z" fill="#0E1AFB"/>
<path d="M8.10627 7.70068H7.59961V8.106H8.10627V7.70068Z" fill="#0E1AFB"/>
<path d="M7.59845 7.70068H7.0918V8.106H7.59845V7.70068Z" fill="#0E1AFB"/>
<path d="M7.09259 7.70117H6.58594V8.10649H7.09259V7.70117Z" fill="#0E1AFB"/>
<path d="M6.58673 7.70068H6.08008V8.106H6.58673V7.70068Z" fill="#0E1AFB"/>
<path d="M6.07892 7.70068H5.57227V8.106H6.07892V7.70068Z" fill="#0E1AFB"/>
<path d="M5.57306 7.70068H5.06641V8.106H5.57306V7.70068Z" fill="#0E1AFB"/>
<path d="M5.06525 7.70068H4.55859V8.106H5.06525V7.70068Z" fill="#0E1AFB"/>
<path d="M8.61212 7.2959H8.10547V7.70122H8.61212V7.2959Z" fill="#0E1AFB"/>
<path d="M8.10627 7.2959H7.59961V7.70122H8.10627V7.2959Z" fill="#0E1AFB"/>
<path d="M7.59845 7.2959H7.0918V7.70122H7.59845V7.2959Z" fill="#0E1AFB"/>
<path d="M7.09259 7.2959H6.58594V7.70122H7.09259V7.2959Z" fill="#0E1AFB"/>
<path d="M6.58673 7.2959H6.08008V7.70122H6.58673V7.2959Z" fill="#0E1AFB"/>
<path d="M6.07892 7.2959H5.57227V7.70122H6.07892V7.2959Z" fill="#0E1AFB"/>
<path d="M5.57306 7.2959H5.06641V7.70122H5.57306V7.2959Z" fill="#0E1AFB"/>
<path d="M5.06525 7.2959H4.55859V7.70122H5.06525V7.2959Z" fill="#0E1AFB"/>
<path d="M8.10627 6.89014H7.59961V7.29546H8.10627V6.89014Z" fill="#0E1AFB"/>
<path d="M7.59845 6.89014H7.0918V7.29546H7.59845V6.89014Z" fill="#0E1AFB"/>
<path d="M7.09259 6.89062H6.58594V7.29595H7.09259V6.89062Z" fill="#0E1AFB"/>
<path d="M6.58673 6.89014H6.08008V7.29546H6.58673V6.89014Z" fill="#0E1AFB"/>
<path d="M6.07892 6.89014H5.57227V7.29546H6.07892V6.89014Z" fill="#0E1AFB"/>
<path d="M5.57306 6.89014H5.06641V7.29546H5.57306V6.89014Z" fill="#0E1AFB"/>
<path d="M8.10627 6.48486H7.59961V6.89018H8.10627V6.48486Z" fill="#0E1AFB"/>
<path d="M7.59845 6.48486H7.0918V6.89018H7.59845V6.48486Z" fill="#0E1AFB"/>
<path d="M7.09259 6.48486H6.58594V6.89018H7.09259V6.48486Z" fill="#0E1AFB"/>
<path d="M6.58673 6.48486H6.08008V6.89018H6.58673V6.48486Z" fill="#0E1AFB"/>
<path d="M6.07892 6.48486H5.57227V6.89018H6.07892V6.48486Z" fill="#0E1AFB"/>
<path d="M5.57306 6.48486H5.06641V6.89018H5.57306V6.48486Z" fill="#0E1AFB"/>
<path d="M8.10627 6.07959H7.59961V6.48491H8.10627V6.07959Z" fill="#0E1AFB"/>
<path d="M7.59845 6.07959H7.0918V6.48491H7.59845V6.07959Z" fill="#0E1AFB"/>
<path d="M7.09259 6.07959H6.58594V6.48491H7.09259V6.07959Z" fill="#0E1AFB"/>
<path d="M6.58673 6.07959H6.08008V6.48491H6.58673V6.07959Z" fill="#0E1AFB"/>
<path d="M6.07892 6.07959H5.57227V6.48491H6.07892V6.07959Z" fill="#0E1AFB"/>
<path d="M5.57306 6.07959H5.06641V6.48491H5.57306V6.07959Z" fill="#0E1AFB"/>
<path d="M8.10627 5.67432H7.59961V6.07964H8.10627V5.67432Z" fill="#0E1AFB"/>
<path d="M7.59845 5.67432H7.0918V6.07964H7.59845V5.67432Z" fill="#0E1AFB"/>
<path d="M7.09259 5.67432H6.58594V6.07964H7.09259V5.67432Z" fill="#0E1AFB"/>
<path d="M6.58673 5.67432H6.08008V6.07964H6.58673V5.67432Z" fill="#0E1AFB"/>
<path d="M6.07892 5.67432H5.57227V6.07964H6.07892V5.67432Z" fill="#0E1AFB"/>
<path d="M5.57306 5.67432H5.06641V6.07964H5.57306V5.67432Z" fill="#0E1AFB"/>
<path d="M12.6649 5.26904H12.1582V5.67436H12.6649V5.26904Z" fill="#0E1AFB"/>
<path d="M12.1591 5.26904H11.6525V5.67436H12.1591V5.26904Z" fill="#0E1AFB"/>
<path d="M11.6531 5.26904H11.1465V5.67436H11.6531V5.26904Z" fill="#0E1AFB"/>
<path d="M11.1453 5.26904H10.6387V5.67436H11.1453V5.26904Z" fill="#0E1AFB"/>
<path d="M10.6395 5.26904H10.1328V5.67436H10.6395V5.26904Z" fill="#0E1AFB"/>
<path d="M10.1317 5.26904H9.625V5.67436H10.1317V5.26904Z" fill="#0E1AFB"/>
<path d="M9.62586 5.26904H9.1192V5.67436H9.62586V5.26904Z" fill="#0E1AFB"/>
<path d="M9.11994 5.26904H8.61328V5.67436H9.11994V5.26904Z" fill="#0E1AFB"/>
<path d="M8.61212 5.26904H8.10547V5.67436H8.61212V5.26904Z" fill="#0E1AFB"/>
<path d="M8.10627 5.26904H7.59961V5.67436H8.10627V5.26904Z" fill="#0E1AFB"/>
<path d="M7.59845 5.26904H7.0918V5.67436H7.59845V5.26904Z" fill="#0E1AFB"/>
<path d="M7.09259 5.26904H6.58594V5.67436H7.09259V5.26904Z" fill="#0E1AFB"/>
<path d="M6.58673 5.26904H6.08008V5.67436H6.58673V5.26904Z" fill="#0E1AFB"/>
<path d="M6.07892 5.26904H5.57227V5.67436H6.07892V5.26904Z" fill="#0E1AFB"/>
<path d="M5.57306 5.26904H5.06641V5.67436H5.57306V5.26904Z" fill="#0E1AFB"/>
<path d="M5.06525 5.26904H4.55859V5.67436H5.06525V5.26904Z" fill="#0E1AFB"/>
<path d="M4.55933 5.26904H4.05267V5.67436H4.55933V5.26904Z" fill="#0E1AFB"/>
<path d="M4.05353 5.26904H3.54688V5.67436H4.05353V5.26904Z" fill="#0E1AFB"/>
<path d="M3.54572 5.26904H3.03906V5.67436H3.54572V5.26904Z" fill="#0E1AFB"/>
<path d="M3.03986 5.26904H2.5332V5.67436H3.03986V5.26904Z" fill="#0E1AFB"/>
<path d="M2.53205 5.26904H2.02539V5.67436H2.53205V5.26904Z" fill="#0E1AFB"/>
<path d="M2.02607 5.26904H1.51941V5.67436H2.02607V5.26904Z" fill="#0E1AFB"/>
<path d="M1.52033 5.26904H1.01367V5.67436H1.52033V5.26904Z" fill="#0E1AFB"/>
<path d="M1.01252 5.26904H0.505859V5.67436H1.01252V5.26904Z" fill="#0E1AFB"/>
<path d="M13.1724 4.86377H12.6658V5.26909H13.1724V4.86377Z" fill="#0E1AFB"/>
<path d="M12.6649 4.86377H12.1582V5.26909H12.6649V4.86377Z" fill="#0E1AFB"/>
<path d="M12.1591 4.86377H11.6525V5.26909H12.1591V4.86377Z" fill="#0E1AFB"/>
<path d="M11.6531 4.86377H11.1465V5.26909H11.6531V4.86377Z" fill="#0E1AFB"/>
<path d="M11.1453 4.86377H10.6387V5.26909H11.1453V4.86377Z" fill="#0E1AFB"/>
<path d="M10.6395 4.86377H10.1328V5.26909H10.6395V4.86377Z" fill="#0E1AFB"/>
<path d="M10.1317 4.86377H9.625V5.26909H10.1317V4.86377Z" fill="#0E1AFB"/>
<path d="M9.62586 4.86377H9.1192V5.26909H9.62586V4.86377Z" fill="#0E1AFB"/>
<path d="M9.11994 4.86377H8.61328V5.26909H9.11994V4.86377Z" fill="#0E1AFB"/>
<path d="M8.61212 4.86377H8.10547V5.26909H8.61212V4.86377Z" fill="#0E1AFB"/>
<path d="M8.10627 4.86377H7.59961V5.26909H8.10627V4.86377Z" fill="#0E1AFB"/>
<path d="M7.59845 4.86377H7.0918V5.26909H7.59845V4.86377Z" fill="#0E1AFB"/>
<path d="M7.09259 4.86377H6.58594V5.26909H7.09259V4.86377Z" fill="#0E1AFB"/>
<path d="M6.58673 4.86377H6.08008V5.26909H6.58673V4.86377Z" fill="#0E1AFB"/>
<path d="M6.07892 4.86377H5.57227V5.26909H6.07892V4.86377Z" fill="#0E1AFB"/>
<path d="M5.57306 4.86377H5.06641V5.26909H5.57306V4.86377Z" fill="#0E1AFB"/>
<path d="M5.06525 4.86377H4.55859V5.26909H5.06525V4.86377Z" fill="#0E1AFB"/>
<path d="M4.55933 4.86377H4.05267V5.26909H4.55933V4.86377Z" fill="#0E1AFB"/>
<path d="M4.05353 4.86377H3.54688V5.26909H4.05353V4.86377Z" fill="#0E1AFB"/>
<path d="M3.54572 4.86377H3.03906V5.26909H3.54572V4.86377Z" fill="#0E1AFB"/>
<path d="M3.03986 4.86377H2.5332V5.26909H3.03986V4.86377Z" fill="#0E1AFB"/>
<path d="M2.53205 4.86377H2.02539V5.26909H2.53205V4.86377Z" fill="#0E1AFB"/>
<path d="M2.02607 4.86377H1.51941V5.26909H2.02607V4.86377Z" fill="#0E1AFB"/>
<path d="M1.52033 4.86377H1.01367V5.26909H1.52033V4.86377Z" fill="#0E1AFB"/>
<path d="M1.01252 4.86377H0.505859V5.26909H1.01252V4.86377Z" fill="#0E1AFB"/>
<path d="M0.506656 4.86377H0V5.24122H0.506656V4.86377Z" fill="#0E1AFB"/>
<path d="M13.1724 4.4585H12.6658V4.86382H13.1724V4.4585Z" fill="#0E1AFB"/>
<path d="M12.6649 4.4585H12.1582V4.86382H12.6649V4.4585Z" fill="#0E1AFB"/>
<path d="M12.1591 4.4585H11.6525V4.86382H12.1591V4.4585Z" fill="#0E1AFB"/>
<path d="M11.6531 4.4585H11.1465V4.86382H11.6531V4.4585Z" fill="#0E1AFB"/>
<path d="M11.1453 4.4585H10.6387V4.86382H11.1453V4.4585Z" fill="#0E1AFB"/>
<path d="M10.6395 4.4585H10.1328V4.86382H10.6395V4.4585Z" fill="#0E1AFB"/>
<path d="M10.1317 4.4585H9.625V4.86382H10.1317V4.4585Z" fill="#0E1AFB"/>
<path d="M9.62586 4.4585H9.1192V4.86382H9.62586V4.4585Z" fill="#0E1AFB"/>
<path d="M9.11994 4.4585H8.61328V4.86382H9.11994V4.4585Z" fill="#0E1AFB"/>
<path d="M8.61212 4.4585H8.10547V4.86382H8.61212V4.4585Z" fill="#0E1AFB"/>
<path d="M8.10627 4.4585H7.59961V4.86382H8.10627V4.4585Z" fill="#0E1AFB"/>
<path d="M7.59845 4.4585H7.0918V4.86382H7.59845V4.4585Z" fill="#0E1AFB"/>
<path d="M7.09259 4.4585H6.58594V4.86382H7.09259V4.4585Z" fill="#0E1AFB"/>
<path d="M6.58673 4.4585H6.08008V4.86382H6.58673V4.4585Z" fill="#0E1AFB"/>
<path d="M6.07892 4.4585H5.57227V4.86382H6.07892V4.4585Z" fill="#0E1AFB"/>
<path d="M5.57306 4.4585H5.06641V4.86382H5.57306V4.4585Z" fill="#0E1AFB"/>
<path d="M5.06525 4.4585H4.55859V4.86382H5.06525V4.4585Z" fill="#0E1AFB"/>
<path d="M4.55933 4.4585H4.05267V4.86382H4.55933V4.4585Z" fill="#0E1AFB"/>
<path d="M4.05353 4.4585H3.54688V4.86382H4.05353V4.4585Z" fill="#0E1AFB"/>
<path d="M3.54572 4.4585H3.03906V4.86382H3.54572V4.4585Z" fill="#0E1AFB"/>
<path d="M3.03986 4.4585H2.5332V4.86382H3.03986V4.4585Z" fill="#0E1AFB"/>
<path d="M2.53205 4.4585H2.02539V4.86382H2.53205V4.4585Z" fill="#0E1AFB"/>
<path d="M2.02607 4.4585H1.51941V4.86382H2.02607V4.4585Z" fill="#0E1AFB"/>
<path d="M1.52033 4.4585H1.01367V4.86382H1.52033V4.4585Z" fill="#0E1AFB"/>
<path d="M1.01252 4.4585H0.505859V4.86382H1.01252V4.4585Z" fill="#0E1AFB"/>
<path d="M0.506656 4.4585H0V4.86382H0.506656V4.4585Z" fill="#0E1AFB"/>
<path d="M12.6649 4.05322H12.1582V4.45854H12.6649V4.05322Z" fill="#0E1AFB"/>
<path d="M12.1591 4.05322H11.6525V4.45854H12.1591V4.05322Z" fill="#0E1AFB"/>
<path d="M11.6531 4.05322H11.1465V4.45854H11.6531V4.05322Z" fill="#0E1AFB"/>
<path d="M11.1453 4.05322H10.6387V4.45854H11.1453V4.05322Z" fill="#0E1AFB"/>
<path d="M10.6395 4.05322H10.1328V4.45854H10.6395V4.05322Z" fill="#0E1AFB"/>
<path d="M10.1317 4.05322H9.625V4.45854H10.1317V4.05322Z" fill="#0E1AFB"/>
<path d="M9.62586 4.05322H9.1192V4.45854H9.62586V4.05322Z" fill="#0E1AFB"/>
<path d="M9.11994 4.05322H8.61328V4.45854H9.11994V4.05322Z" fill="#0E1AFB"/>
<path d="M8.61212 4.05322H8.10547V4.45854H8.61212V4.05322Z" fill="#0E1AFB"/>
<path d="M8.10627 4.05322H7.59961V4.45854H8.10627V4.05322Z" fill="#0E1AFB"/>
<path d="M7.59845 4.05322H7.0918V4.45854H7.59845V4.05322Z" fill="#0E1AFB"/>
<path d="M7.09259 4.05322H6.58594V4.45854H7.09259V4.05322Z" fill="#0E1AFB"/>
<path d="M6.58673 4.05322H6.08008V4.45854H6.58673V4.05322Z" fill="#0E1AFB"/>
<path d="M6.07892 4.05322H5.57227V4.45854H6.07892V4.05322Z" fill="#0E1AFB"/>
<path d="M5.57306 4.05322H5.06641V4.45854H5.57306V4.05322Z" fill="#0E1AFB"/>
<path d="M5.06525 4.05322H4.55859V4.45854H5.06525V4.05322Z" fill="#0E1AFB"/>
<path d="M4.55933 4.05322H4.05267V4.45854H4.55933V4.05322Z" fill="#0E1AFB"/>
<path d="M4.05353 4.05322H3.54688V4.45854H4.05353V4.05322Z" fill="#0E1AFB"/>
<path d="M3.54572 4.05322H3.03906V4.45854H3.54572V4.05322Z" fill="#0E1AFB"/>
<path d="M3.03986 4.05322H2.5332V4.45854H3.03986V4.05322Z" fill="#0E1AFB"/>
<path d="M2.53205 4.05322H2.02539V4.45854H2.53205V4.05322Z" fill="#0E1AFB"/>
<path d="M2.02607 4.05322H1.51941V4.45854H2.02607V4.05322Z" fill="#0E1AFB"/>
<path d="M1.52033 4.05322H1.01367V4.45854H1.52033V4.05322Z" fill="#0E1AFB"/>
<path d="M1.01252 4.05322H0.505859V4.45854H1.01252V4.05322Z" fill="#0E1AFB"/>
<path d="M7.09259 3.24268H6.58594V3.648H7.09259V3.24268Z" fill="#0E1AFB"/>
<path d="M6.58673 3.24268H6.08008V3.648H6.58673V3.24268Z" fill="#0E1AFB"/>
<path d="M7.59845 2.8374H7.0918V3.24272H7.59845V2.8374Z" fill="#0E1AFB"/>
<path d="M7.09259 2.8374H6.58594V3.24272H7.09259V2.8374Z" fill="#0E1AFB"/>
<path d="M6.58673 2.8374H6.08008V3.24272H6.58673V2.8374Z" fill="#0E1AFB"/>
<path d="M6.07892 2.8374H5.57227V3.24272H6.07892V2.8374Z" fill="#0E1AFB"/>
<path d="M8.10627 2.43213H7.59961V2.83745H8.10627V2.43213Z" fill="#0E1AFB"/>
<path d="M7.59845 2.43213H7.0918V2.83745H7.59845V2.43213Z" fill="#0E1AFB"/>
<path d="M7.09259 2.43213H6.58594V2.83745H7.09259V2.43213Z" fill="#0E1AFB"/>
<path d="M6.58673 2.43213H6.08008V2.83745H6.58673V2.43213Z" fill="#0E1AFB"/>
<path d="M6.07892 2.43213H5.57227V2.83745H6.07892V2.43213Z" fill="#0E1AFB"/>
<path d="M5.57306 2.43213H5.06641V2.83745H5.57306V2.43213Z" fill="#0E1AFB"/>
<path d="M8.10627 2.02686H7.59961V2.43218H8.10627V2.02686Z" fill="#0E1AFB"/>
<path d="M7.59845 2.02686H7.0918V2.43218H7.59845V2.02686Z" fill="#0E1AFB"/>
<path d="M7.09259 2.02637H6.58594V2.43169H7.09259V2.02637Z" fill="#0E1AFB"/>
<path d="M6.58673 2.02686H6.08008V2.43218H6.58673V2.02686Z" fill="#0E1AFB"/>
<path d="M6.07892 2.02686H5.57227V2.43218H6.07892V2.02686Z" fill="#0E1AFB"/>
<path d="M5.57306 2.02686H5.06641V2.43218H5.57306V2.02686Z" fill="#0E1AFB"/>
<path d="M8.10627 1.62158H7.59961V2.0269H8.10627V1.62158Z" fill="#0E1AFB"/>
<path d="M7.59845 1.62158H7.0918V2.0269H7.59845V1.62158Z" fill="#0E1AFB"/>
<path d="M7.09259 1.62109H6.58594V2.02641H7.09259V1.62109Z" fill="#0E1AFB"/>
<path d="M6.58673 1.62158H6.08008V2.0269H6.58673V1.62158Z" fill="#0E1AFB"/>
<path d="M6.07892 1.62158H5.57227V2.0269H6.07892V1.62158Z" fill="#0E1AFB"/>
<path d="M5.57306 1.62158H5.06641V2.0269H5.57306V1.62158Z" fill="#0E1AFB"/>
<path d="M8.10627 1.21582H7.59961V1.62114H8.10627V1.21582Z" fill="#0E1AFB"/>
<path d="M7.59845 1.21582H7.0918V1.62114H7.59845V1.21582Z" fill="#0E1AFB"/>
<path d="M7.09259 1.21582H6.58594V1.62114H7.09259V1.21582Z" fill="#0E1AFB"/>
<path d="M6.58673 1.21582H6.08008V1.62114H6.58673V1.21582Z" fill="#0E1AFB"/>
<path d="M6.07892 1.21582H5.57227V1.62114H6.07892V1.21582Z" fill="#0E1AFB"/>
<path d="M5.57306 1.21582H5.06641V1.62114H5.57306V1.21582Z" fill="#0E1AFB"/>
<path d="M8.10627 0.810547H7.59961V1.21587H8.10627V0.810547Z" fill="#0E1AFB"/>
<path d="M7.59845 0.810547H7.0918V1.21587H7.59845V0.810547Z" fill="#0E1AFB"/>
<path d="M7.09259 0.810547H6.58594V1.21587H7.09259V0.810547Z" fill="#0E1AFB"/>
<path d="M6.58673 0.810547H6.08008V1.21587H6.58673V0.810547Z" fill="#0E1AFB"/>
<path d="M6.07892 0.810547H5.57227V1.21587H6.07892V0.810547Z" fill="#0E1AFB"/>
<path d="M5.57306 0.810547H5.06641V1.21587H5.57306V0.810547Z" fill="#0E1AFB"/>
<path d="M7.59845 0.405273H7.0918V0.810593H7.59845V0.405273Z" fill="#0E1AFB"/>
<path d="M7.09259 0.405273H6.58594V0.810593H7.09259V0.405273Z" fill="#0E1AFB"/>
<path d="M6.58673 0.405273H6.08008V0.810593H6.58673V0.405273Z" fill="#0E1AFB"/>
<path d="M6.07892 0.405273H5.57227V0.810593H6.07892V0.405273Z" fill="#0E1AFB"/>
<path d="M7.59845 0H7.0918V0.40532H7.59845V0Z" fill="#0E1AFB"/>
<path d="M7.09259 0H6.58594V0.40532H7.09259V0Z" fill="#0E1AFB"/>
<path d="M6.58673 0H6.08008V0.40532H6.58673V0Z" fill="#0E1AFB"/>
<path d="M6.07892 0H5.57227V0.40532H6.07892V0Z" fill="#0E1AFB"/>
</svg>
